PathFileType	4	(X/Y/Z)	SUBJ32_3_walk_RCNL2025.trc
DataRate	CameraRate	NumFrames	NumMarkers	Units	OrigDataRate	OrigDataStartFrame	OrigNumFrames
100	100	11	25	mm	100	344	393
Frame#	Time	R_Shoulder			L_Shoulder			C7			J_Notch			R_Elbow			L_Elbow			R_Wrist			L_Wrist			R_Asis			L_Asis			Sacral			Thoracic			Sternum			R_Thigh_Lateral			R_Knee_Lateral			R_Shank_Lateral			R_Ankle_Lateral			R_Heel			R_Toe			L_Thigh_Lateral			L_Knee_Lateral			L_Shank_Lateral			L_Ankle_Lateral			L_Heel			L_Toe		
		X1	Y1	Z1	X2	Y2	Z2	X3	Y3	Z3	X4	Y4	Z4	X5	Y5	Z5	X6	Y6	Z6	X7	Y7	Z7	X8	Y8	Z8	X9	Y9	Z9	X10	Y10	Z10	X11	Y11	Z11	X12	Y12	Z12	X13	Y13	Z13	X14	Y14	Z14	X15	Y15	Z15	X16	Y16	Z16	X17	Y17	Z17	X18	Y18	Z18	X19	Y19	Z19	X20	Y20	Z20	X21	Y21	Z21	X22	Y22	Z22	X23	Y23	Z23	X24	Y24	Z24	X25	Y25	Z25
344	3.43000000	1968.015381	1341.883667	-24.348974	1957.619751	1342.002930	-394.012939	1936.833008	1421.738525	-198.392029	2056.206787	1312.656372	-210.179504	1874.350342	1018.932983	81.971527	1943.746826	1036.200562	-524.398987	1932.003662	776.217499	110.157352	2100.826538	830.802032	-547.689850	2040.937500	881.592590	-94.940483	2011.735718	876.943115	-347.829651	1830.380005	925.336853	-196.619705	1830.579590	1185.121094	-200.171570	2120.459717	1090.503784	-222.090210	2036.027710	521.563477	-19.482197	2076.867676	437.922638	-65.464935	2114.969238	282.749420	2.277966	2201.646240	69.074173	-105.262115	2159.670898	42.296669	-162.190247	2331.126953	91.095634	-129.956757	1867.532593	544.659485	-428.186310	1850.102905	451.643707	-378.330200	1781.632690	236.257339	-393.459198	1727.769287	60.048027	-295.369019	1680.298828	58.314980	-243.590881	1861.265015	31.851908	-279.535278
345	3.44000000	1978.134399	1340.175049	-22.979649	1968.241577	1341.202515	-392.486145	1946.820679	1420.193604	-196.749374	2066.490234	1311.296021	-208.759552	1884.637695	1016.896545	82.665489	1955.272949	1035.967285	-524.108459	1942.075439	774.077789	110.321480	2113.422363	831.498322	-548.145142	2051.821777	879.857849	-94.605911	2021.969116	876.036316	-347.496796	1840.890747	923.755615	-195.682587	1840.886597	1183.604370	-199.000061	2130.717773	1089.153809	-221.285706	2046.544189	519.531982	-19.844769	2088.673340	436.413422	-65.600891	2130.281494	281.998199	2.322744	2221.298584	69.829399	-105.275795	2179.513428	42.055363	-162.047974	2350.393066	94.387711	-130.624390	1874.676392	544.684875	-428.231659	1856.375488	451.749939	-378.468109	1784.947021	237.210220	-393.719910	1728.420532	61.738358	-295.653046	1680.812256	60.654064	-243.957718	1861.379028	31.864952	-279.517609
346	3.45000000	1988.302246	1338.524536	-21.496113	1978.846680	1340.421753	-390.847961	1956.900635	1418.685913	-195.014694	2076.841064	1309.998047	-207.228241	1895.079102	1014.867249	83.428978	1966.596680	1035.729492	-523.635803	1952.359802	771.956207	110.551914	2125.573608	832.017792	-548.488831	2062.877441	878.189880	-94.224129	2032.319946	875.145996	-347.119263	1851.560669	922.186646	-194.713303	1851.298706	1182.099243	-197.720734	2141.111084	1087.874512	-220.364105	2058.449219	518.091614	-19.894796	2101.052246	435.198578	-65.548820	2144.850586	281.257019	2.447175	2238.022949	70.052925	-105.393005	2196.330078	41.698311	-162.047058	2366.808105	96.262566	-131.186661	1882.128662	544.762024	-428.350403	1862.964478	451.887207	-378.725159	1788.570435	238.231552	-394.171783	1729.171875	63.599709	-296.182770	1681.367798	63.230389	-244.634567	1861.534546	31.915480	-279.568848
347	3.46000000	1998.534424	1336.931885	-19.895964	1989.441528	1339.660034	-389.101837	1967.078003	1417.217896	-193.183212	2087.270020	1308.763550	-205.583405	1905.670532	1012.850891	84.264984	1977.720581	1035.493652	-522.984985	1962.857544	769.859070	110.848598	2137.273804	832.358429	-548.711884	2074.128906	876.620850	-93.772148	2042.743286	874.240723	-346.702515	1862.412354	920.619629	-193.701813	1861.828125	1180.611694	-196.332642	2151.653320	1086.667969	-219.335449	2071.609131	517.287903	-19.631266	2113.865479	434.226471	-65.326126	2158.614746	280.432648	2.611002	2251.911621	69.655106	-105.584839	2210.184326	41.172291	-162.149567	2380.499023	96.518341	-131.653244	1889.966553	544.853577	-428.539429	1869.934448	452.020508	-379.089172	1792.571777	239.293060	-394.801392	1730.038574	65.630844	-296.937103	1681.983887	66.055084	-245.598419	1861.730591	32.005817	-279.674347
348	3.47000000	2008.848755	1335.391724	-18.177265	2000.035278	1338.919678	-387.251251	1977.355713	1415.798340	-191.248108	2097.789062	1307.595825	-203.824936	1916.405396	1010.852478	85.177711	1988.646973	1035.267822	-522.158020	1973.568359	767.791138	111.209705	2148.516357	832.519226	-548.809204	2085.602783	875.184082	-93.243172	2053.217773	873.304016	-346.252411	1873.468750	919.051147	-192.643463	1872.484985	1179.149048	-194.836639	2162.354980	1085.542358	-218.210785	2085.713135	517.065735	-19.098688	2126.888916	433.411987	-64.959419	2171.529541	279.450409	2.779776	2263.194580	68.644150	-105.822929	2221.297363	40.509052	-162.320511	2391.723877	95.110741	-132.009705	1898.252930	544.918030	-428.781342	1877.349976	452.114471	-379.531769	1797.001465	240.371231	-395.569855	1731.039307	67.838852	-297.873199	1682.690918	69.148575	-246.799561	1861.972290	32.132633	-279.813324
349	3.48000000	2019.261597	1333.898560	-16.338182	2010.635498	1338.211304	-385.298584	1987.736938	1414.446777	-189.200958	2108.407471	1306.507812	-201.955673	1927.277222	1008.878174	86.169464	1999.375244	1035.061646	-521.153992	1984.490540	765.756958	111.632732	2159.293945	832.499481	-548.772797	2097.317627	873.913391	-92.658089	2063.764404	872.343811	-345.771606	1884.744141	917.501770	-191.538834	1883.277222	1177.725342	-193.236740	2173.224609	1084.514771	-217.002121	2100.336182	517.279602	-18.380665	2139.865234	432.666504	-64.478432	2183.586914	278.269348	2.929075	2272.202881	67.113754	-106.087967	2230.016113	39.822155	-162.541122	2400.836914	92.138855	-132.221619	1907.035034	544.919556	-429.047729	1885.277466	452.138794	-380.015289	1801.890503	241.452469	-396.421783	1732.199585	70.243637	-298.934021	1683.534424	72.545128	-248.170670	1862.272949	32.285095	-279.961273
350	3.49000000	2029.785522	1332.450806	-14.378301	2021.244385	1337.555176	-383.245758	1998.227539	1413.195190	-187.033783	2119.131348	1305.524292	-199.982239	1938.283325	1006.936035	87.239151	2009.902100	1034.885986	-519.970032	1995.620361	763.762939	112.114872	2169.597656	832.300262	-548.593262	2109.271729	872.842712	-92.064499	2074.450684	871.392029	-345.259460	1896.235840	916.025024	-190.390747	1894.209106	1176.366333	-191.542038	2184.267822	1083.611938	-215.721619	2115.033691	517.743530	-17.571672	2152.568604	431.934845	-63.906525	2194.825439	276.893494	3.046310	2279.323975	65.224640	-106.365479	2236.760742	39.279026	-162.803772	2408.241455	87.809319	-132.255600	1916.351562	544.834656	-429.302887	1893.786255	452.071777	-380.501770	1807.258179	242.539047	-397.296814	1733.557007	72.878830	-300.059357	1684.578491	76.295883	-249.641190	1862.649658	32.448204	-280.094299
351	3.50000000	2040.426147	1331.053345	-12.301435	2031.857910	1336.978760	-381.097015	2008.837646	1412.086548	-184.743088	2129.961426	1304.682373	-197.915298	1949.428711	1005.036133	88.381271	2020.222046	1034.753296	-518.603210	2006.952698	761.818939	112.652016	2179.419067	831.926971	-548.266022	2121.433838	872.008789	-91.519165	2085.363037	870.493469	-344.712189	1907.922119	914.695679	-189.208420	1905.275635	1175.113647	-189.767563	2195.489014	1082.868652	-214.379135	2129.424561	518.293579	-16.744238	2164.863037	431.221802	-63.252991	2205.337646	275.383545	3.136675	2284.958496	63.179585	-106.633484	2241.965332	39.047298	-163.090912	2414.338867	82.405731	-132.109406	1926.241333	544.653931	-429.509308	1902.951782	451.901276	-380.960663	1813.126343	243.651169	-398.142334	1735.164795	75.790581	-301.195740	1685.908325	80.468803	-251.151306	1863.116699	32.604580	-280.194214
352	3.51000000	2051.183350	1329.718628	-10.118178	2042.468140	1336.516357	-378.862915	2019.580322	1411.171143	-182.332748	2140.893799	1304.026733	-195.768967	1960.728271	1003.193665	89.586082	2030.328125	1034.677246	-517.050476	2018.482056	759.940491	113.237759	2188.749390	831.391357	-547.791168	2133.739990	871.452454	-91.061211	2096.555176	869.688477	-344.120239	1919.764648	913.590088	-188.015320	1916.460083	1174.024902	-187.934479	2206.885498	1082.324463	-212.979660	2143.249756	518.832397	-15.928341	2176.732178	430.597870	-62.510132	2215.281982	273.866943	3.236554	2289.481934	61.186501	-106.852577	2246.021484	39.229279	-163.350830	2419.474609	76.282112	-131.838303	1936.750732	544.379456	-429.635132	1912.859009	451.623932	-381.374573	1819.534546	244.823151	-398.922028	1737.096191	79.034470	-302.303162	1687.633423	85.144516	-252.659775	1863.686279	32.734329	-280.252289
353	3.52000000	2062.054688	1328.469727	-7.846412	2053.068848	1336.209351	-376.563141	2030.469116	1410.499146	-179.814560	2151.920654	1303.603882	-193.559891	1972.207520	1001.434814	90.840874	2040.211670	1034.676392	-515.306641	2030.202515	758.151184	113.864067	2197.575684	830.714569	-547.169067	2146.099365	871.215942	-90.689720	2108.003662	868.998047	-343.465668	1931.715454	912.774048	-186.849426	1927.736206	1173.166870	-186.069962	2218.447266	1082.019897	-211.523483	2156.399658	519.341858	-15.109048	2188.269531	430.177917	-61.655491	2224.884277	272.531952	3.423012	2293.214355	59.416462	-106.972382	2249.240234	39.818775	-163.496613	2423.890137	69.862350	-131.561691	1947.936890	544.020020	-429.662415	1923.602783	451.243500	-381.743683	1826.548096	246.098465	-399.620300	1739.448975	82.670097	-303.359741	1689.889648	90.408768	-254.144699	1864.371094	32.819050	-280.266815
354	3.53000000	2073.040039	1327.342651	-5.509855	2063.660400	1336.104858	-374.223755	2041.511963	1410.111938	-177.206665	2163.031982	1303.452271	-191.307053	1983.896484	999.796021	92.130836	2049.863770	1034.777100	-513.364136	2042.109375	756.484467	114.523323	2205.878784	829.927460	-546.392975	2158.407227	871.333923	-90.356850	2119.619873	868.427307	-342.723328	1943.725098	912.296814	-185.751511	1939.075562	1172.600952	-184.205658	2230.152588	1081.988770	-210.008377	2168.913818	519.869995	-14.239618	2199.622559	430.075958	-60.660664	2234.410645	271.589966	3.797475	2296.394531	57.975739	-106.957008	2251.835449	40.712452	-163.443985	2427.709961	63.598270	-131.433212	1959.864624	543.588318	-429.592804	1935.284424	450.768188	-382.087463	1834.257080	247.526947	-400.242371	1742.344482	86.754349	-304.362030	1692.841309	96.343086	-255.598389	1865.185425	32.848633	-280.237091
